<svg width="34" height="35" viewBox="0 0 34 35" fill="none" xmlns="http://www.w3.org/2000/svg">
<path d="M24.5 11L23.8803 21.0251C23.7219 23.5864 23.6428 24.8671 23.0008 25.7879C22.6833 26.2431 22.2747 26.6273 21.8007 26.916C20.8421 27.5 19.559 27.5 16.9927 27.5C14.4231 27.5 13.1383 27.5 12.179 26.9149C11.7048 26.6257 11.296 26.2408 10.9787 25.7848C10.3369 24.8626 10.2594 23.5801 10.1046 21.0152L9.5 11M8 11H26M21.0557 11L20.3731 9.59173C19.9196 8.65626 19.6928 8.18852 19.3017 7.89681C19.215 7.8321 19.1231 7.77454 19.027 7.7247C18.5939 7.5 18.0741 7.5 17.0345 7.5C15.9688 7.5 15.436 7.5 14.9957 7.73412C14.8981 7.78601 14.805 7.8459 14.7173 7.91317C14.3216 8.2167 14.1006 8.70155 13.6586 9.67126L13.0529 11M14.5 22V16M19.5 22V16" stroke="#FF5E5E" stroke-width="2" stroke-linecap="round"/>
</svg>
