<svg width="34" height="35" viewBox="0 0 34 35" fill="none" xmlns="http://www.w3.org/2000/svg">
<path d="M17.0001 26.5H23.0001M19.5001 11L23.5001 15M13.1716 25.3284L24.8285 13.6716C25.3737 13.1263 25.6463 12.8537 25.7921 12.5596C26.0694 12 26.0694 11.3431 25.7921 10.7835C25.6463 10.4894 25.3737 10.2168 24.8285 9.67157C24.2832 9.12632 24.0106 8.8537 23.7165 8.70796C23.1569 8.43068 22.5 8.43068 21.9404 8.70796C21.6463 8.8537 21.3737 9.12632 20.8285 9.67157L9.17157 21.3284C8.59351 21.9064 8.30448 22.1955 8.15224 22.563C8 22.9305 8 23.3393 8 24.1568V26.4999H10.3431C11.1607 26.4999 11.5694 26.4999 11.9369 26.3477C12.3045 26.1955 12.5935 25.9064 13.1716 25.3284Z" stroke="#8D9CB8" stroke-width="1.5" stroke-linecap="round" stroke-linejoin="round"/>
</svg>
