<svg width="24" height="23" viewBox="0 0 24 23" fill="none" xmlns="http://www.w3.org/2000/svg">
<path d="M20.5896 10.6132C20.8632 11.0091 21 11.207 21 11.5C21 11.793 20.8632 11.9909 20.5896 12.3868C19.3601 14.1656 16.2203 18 12 18C7.7797 18 4.63989 14.1656 3.41044 12.3868C3.13681 11.9909 3 11.793 3 11.5C3 11.207 3.13681 11.0091 3.41044 10.6132C4.63989 8.83448 7.7797 5 12 5C16.2203 5 19.3601 8.83448 20.5896 10.6132Z" stroke="black" stroke-width="1.5"/>
<path d="M14.7 11.5C14.7 9.96145 13.4912 8.71429 12 8.71429C10.5088 8.71429 9.3 9.96145 9.3 11.5C9.3 13.0385 10.5088 14.2857 12 14.2857C13.4912 14.2857 14.7 13.0385 14.7 11.5Z" stroke="black" stroke-width="1.5"/>
</svg>
